<?xml version="1.0" encoding="UTF-8" standalone="no"?>
<!-- Created with Inkscape (http://www.inkscape.org/) -->

<svg
   xmlns:dc="http://purl.org/dc/elements/1.1/"
   xmlns:cc="http://creativecommons.org/ns#"
   xmlns:rdf="http://www.w3.org/1999/02/22-rdf-syntax-ns#"
   xmlns:svg="http://www.w3.org/2000/svg"
   xmlns="http://www.w3.org/2000/svg"
   xmlns:sodipodi="http://sodipodi.sourceforge.net/DTD/sodipodi-0.dtd"
   xmlns:inkscape="http://www.inkscape.org/namespaces/inkscape"
   width="210mm"
   height="297mm"
   viewBox="0 0 210 297"
   version="1.1"
   id="svg8"
   sodipodi:docname="block_diagram.svg"
   inkscape:version="0.92.4 (5da689c313, 2019-01-14)">
  <defs
     id="defs2" />
  <sodipodi:namedview
     id="base"
     pagecolor="#ffffff"
     bordercolor="#666666"
     borderopacity="1.0"
     inkscape:pageopacity="0.0"
     inkscape:pageshadow="2"
     inkscape:zoom="0.7"
     inkscape:cx="2348.738"
     inkscape:cy="228.86435"
     inkscape:document-units="mm"
     inkscape:current-layer="g856"
     showgrid="false"
     inkscape:snap-global="true"
     inkscape:window-width="1278"
     inkscape:window-height="1368"
     inkscape:window-x="-7"
     inkscape:window-y="0"
     inkscape:window-maximized="0" />
  <metadata
     id="metadata5">
    <rdf:RDF>
      <cc:Work
         rdf:about="">
        <dc:format>image/svg+xml</dc:format>
        <dc:type
           rdf:resource="http://purl.org/dc/dcmitype/StillImage" />
      </cc:Work>
    </rdf:RDF>
  </metadata>
  <g
     inkscape:label="Layer 1"
     inkscape:groupmode="layer"
     id="layer1">
    <g
       id="g1007"
       transform="translate(-1.3229167,0.56696421)">
      <rect
         transform="scale(1,-1)"
         y="-278.66815"
         x="629.14136"
         height="111.125"
         width="143.25298"
         id="rect964"
         style="opacity:1;vector-effect:none;fill:#d8ffde;fill-opacity:0.94472363;stroke:#0c0c0c;stroke-width:0.56499994;stroke-linecap:butt;stroke-linejoin:round;stroke-miterlimit:4;stroke-dasharray:none;stroke-dashoffset:0;stroke-opacity:1" />
      <g
         style="stroke-width:1.57387424"
         transform="matrix(0.63629711,0,0,0.63445379,180.91444,117.45125)"
         id="g866">
        <rect
           style="opacity:1;vector-effect:none;fill:#e4d8ff;fill-opacity:0.94472363;stroke:#0c0c0c;stroke-width:0.88923883;stroke-linecap:butt;stroke-linejoin:round;stroke-miterlimit:4;stroke-dasharray:none;stroke-dashoffset:0;stroke-opacity:1"
           id="rect819"
           width="75.784225"
           height="44.979168"
           x="718.34375"
           y="126.91071" />
        <text
           xml:space="preserve"
           style="font-style:normal;font-variant:normal;font-weight:normal;font-stretch:normal;font-size:4.93888855px;line-height:1.25;font-family:'Highway Gothic';-inkscape-font-specification:'Highway Gothic';letter-spacing:0px;word-spacing:0px;fill:#000000;fill-opacity:1;stroke:none;stroke-width:0.41642088"
           x="743.85718"
           y="150.72322"
           id="text835"><tspan
             sodipodi:role="line"
             id="tspan833"
             x="743.85718"
             y="150.72322"
             style="stroke-width:0.41642088">Game Runner</tspan></text>
      </g>
      <path
         inkscape:connector-curvature="0"
         id="path880"
         d="m 661.83631,179.82738 c 0,0.37797 0,0.75595 0,1.13393 0,0.063 -0.0282,0.13264 0,0.18898 0.0398,0.0797 0.14914,0.10931 0.18899,0.18899 0.0281,0.0564 0,0.126 0,0.18899 0,0.18899 0,0.37798 0,0.56697 0,0.31498 0,0.62996 0,0.94494 0,0.69295 0,1.38591 0,2.07886 0,0.10096 0.027,0.89086 0,0.94495 -0.0399,0.0797 -0.14915,0.1093 -0.18899,0.18898 -0.0282,0.0564 0,0.126 0,0.18899 0,0.15785 0.0376,0.71904 0,0.94494 -0.0528,0.31685 -0.13618,0.6281 -0.18899,0.94494 -0.0199,0.11937 0.0451,0.47667 0,0.56697 -0.0399,0.0797 -0.14915,0.1093 -0.18899,0.18898 -0.0501,0.10021 0.0429,0.81638 0,0.94495 -0.0282,0.0845 -0.17151,0.10162 -0.189,0.18898 -0.0494,0.24709 0,0.50397 0,0.75596 0,0.063 0.0282,0.13264 0,0.18898 -0.0398,0.0797 -0.1715,0.10163 -0.18899,0.18899 -0.0494,0.24709 0,0.50397 0,0.75595 0,0.063 0,0.126 0,0.18899 0,0.063 0.0446,0.14445 0,0.18899 -0.0445,0.0445 -0.14443,-0.0445 -0.18899,0 -0.0445,0.0445 0,0.12599 0,0.18899 0,0.31498 0,0.62996 0,0.94494 0,0.063 0.0446,0.14444 0,0.18899 -0.0445,0.0445 -0.14444,-0.0445 -0.18897,0 -0.008,0.008 0,0.68655 0,0.75595 0,0.063 -0.0445,0.14444 0,0.18899 0.0445,0.0445 0.14444,-0.0446 0.18897,0 0.0446,0.0445 -0.0198,0.12922 0,0.18899 0.45633,1.36892 -0.0545,-0.29796 0.37798,0.56696 0.0564,0.11269 -0.0891,0.28889 0,0.37798 0.0446,0.0445 0.14444,-0.0445 0.189,0 0.0891,0.0891 -0.0564,0.26528 0,0.37797 0.0398,0.0797 0.14914,0.10931 0.18899,0.18899 0.0282,0.0564 -0.0446,0.14444 0,0.18899 0.0445,0.0445 0.14443,-0.0446 0.18899,0 0.0445,0.0445 -0.0446,0.14444 0,0.18899 0.0445,0.0445 0.14443,-0.0445 0.18899,0 0.0445,0.0445 -0.0446,0.14444 0,0.18898 0.0445,0.0445 0.14444,-0.0445 0.18897,0 0.0445,0.0445 0,0.126 0,0.18899 0,0.063 0,0.126 0,0.18899 0.18899,-0.37797 0.40051,-0.7455 0.56698,-1.13392 0.0496,-0.11581 -0.0891,-0.28889 0,-0.37798 0.0445,-0.0445 0.14444,0.0445 0.18899,0 0.0445,-0.0445 -0.0282,-0.13264 0,-0.18899 0.0398,-0.0797 0.14914,-0.1093 0.18899,-0.18899 0.0282,-0.0563 -0.0445,-0.14444 0,-0.18899 0.0445,-0.0445 0.14444,0.0446 0.18898,0 0.0445,-0.0445 -0.0199,-0.12922 0,-0.18898 0.13146,-0.39437 0.43551,-0.55058 0.56697,-0.94494 0.0199,-0.0598 0,-0.126 0,-0.18899 0.063,-0.063 0.14915,-0.10931 0.18899,-0.18899 0.0282,-0.0564 -0.0445,-0.14444 0,-0.18899 0.0445,-0.0445 0.14444,0.0445 0.18899,0 0.0445,-0.0445 -0.0282,-0.13264 0,-0.18899 0.0398,-0.0797 0.14914,-0.1093 0.18898,-0.18898 0.0282,-0.0564 -0.0199,-0.12923 0,-0.18899 0.0446,-0.13364 0.14445,-0.24434 0.18899,-0.37798 0.0398,-0.11953 -0.0563,-0.26528 0,-0.37797 0.0398,-0.0797 0.14915,-0.10931 0.18899,-0.18899 0.0282,-0.0564 -0.0282,-0.13265 0,-0.18899 0.0398,-0.0797 0.14915,-0.1093 0.18899,-0.18899 0.0194,-0.0388 0.0266,-0.54031 0,-0.56696 -0.0446,-0.0446 -0.12599,0 -0.18899,0 -0.31498,0 -0.62996,0 -0.94494,0 -1.07093,0 -2.14187,0 -3.2128,0 -0.50397,0 -1.00793,0 -1.5119,0 -0.063,0 -0.126,0 -0.18899,0 -0.063,0 -0.14444,0.0445 -0.18899,0 -0.0445,-0.0446 0.0445,-0.14445 0,-0.18899 -0.008,-0.008 -0.68655,0 -0.75595,0 -0.063,0 -0.18899,0.063 -0.18899,0 0,-0.063 0.12599,0 0.18899,0 0.063,0 0.14444,-0.0445 0.18899,0 0.0445,0.0445 -0.0445,0.14444 0,0.18899 0.0445,0.0445 0.13264,-0.0282 0.18898,0 0.15937,0.0797 0.21861,0.29829 0.37798,0.37797 0.0563,0.0282 0.14444,-0.0445 0.18899,0 0.0445,0.0446 -0.0282,0.13265 0,0.18899 0.0797,0.15937 0.27914,0.22972 0.37797,0.37798 0.0781,0.1172 0.11086,0.26077 0.18899,0.37797 0.0988,0.14826 0.29829,0.21861 0.37798,0.37798 0.0282,0.0563 -0.0282,0.13264 0,0.18899 0.0398,0.0797 0.14915,0.1093 0.18899,0.18899 0.0563,0.11269 -0.0891,0.28888 0,0.37797 0.0445,0.0445 0.14444,-0.0445 0.18899,0 0.0891,0.0891 -0.0891,0.28889 0,0.37798 0.0445,0.0445 0.14444,-0.0445 0.18898,0 0.0446,0.0445 -0.0282,0.13264 0,0.18899 0.0399,0.0797 0.14915,0.1093 0.18899,0.18898 0.0564,0.11269 -0.0891,0.28889 0,0.37798 0.0446,0.0445 0.14444,-0.0445 0.18899,0 0.0445,0.0445 -0.0446,0.14444 0,0.18899 0.0445,0.0445 0.12599,0 0.18899,0 0,0.063 -0.0446,0.14444 0,0.18899 0.0445,0.0445 0.14444,-0.0446 0.18899,0 0.0445,0.0445 -0.0446,0.14444 0,0.18898 0.0445,0.0446 0.14444,-0.0445 0.18898,0 0.0445,0.0446 -0.0445,0.14445 0,0.18899 0.0445,0.0446 0.14445,-0.0445 0.18899,0 0.0445,0.0446 -0.0445,0.14445 0,0.18899 0.0891,0.0891 0.28889,-0.0891 0.37798,0 0.0445,0.0445 -0.0446,0.14444 0,0.18899 0.0445,0.0445 0.14444,-0.0445 0.18899,0 0.0445,0.0445 -0.0445,0.14444 0,0.18899 0.25198,0.25198 0.18898,-0.31498 0.18898,0.18899"
         style="fill:none;stroke:#000000;stroke-width:0.26458332px;stroke-linecap:butt;stroke-linejoin:miter;stroke-opacity:1" />
      <path
         inkscape:connector-curvature="0"
         id="path882"
         d="m 661.26933,226.12946 c 0,0.75595 0,1.51191 0,2.26786 0,0.063 0,0.12599 0,0.18899 0,0.063 0.0446,0.14444 0,0.18898 -0.0445,0.0445 -0.14443,-0.0445 -0.18899,0 -0.0445,0.0445 0,0.126 0,0.18899 0,0.063 -0.0445,0.14444 0,0.18899 0.0446,0.0446 0.14446,-0.0445 0.18899,0 0.0446,0.0446 0,0.12599 0,0.18899 0,0.31498 0,0.62996 0,0.94494 0,0.063 -0.0445,0.14444 0,0.18899 0.0446,0.0445 0.14444,-0.0446 0.189,0 0.0445,0.0445 0,0.12599 0,0.18899 0,0.12599 0,0.25198 0,0.37797 0,0.56697 0,1.13393 0,1.70089 0,0.0891 -0.008,0.93638 0,0.94494 0.0445,0.0446 0.14443,-0.0445 0.18899,0 0.0445,0.0446 0,0.126 0,0.18899 0,0.44097 0,0.88195 0,1.32292 0,0.063 0,0.12599 0,0.18899 0,0.063 -0.0446,0.14444 0,0.18899 0.0445,0.0445 0.16081,-0.0564 0.18899,0 0.0222,0.0444 0,0.6318 0,0.75595 0,0.69296 0,1.38591 0,2.07887 0,0.0694 -0.008,0.74834 0,0.75595 0.0445,0.0445 0.14443,-0.0445 0.18899,0 0.0445,0.0445 0,0.12599 0,0.18899 0,0.063 0,0.12599 0,0.18899 0,0.62996 0,1.25992 0,1.88988"
         style="fill:none;stroke:#000000;stroke-width:0.26458332px;stroke-linecap:butt;stroke-linejoin:miter;stroke-opacity:1" />
      <path
         inkscape:connector-curvature="0"
         id="path884"
         d="m 657.48958,236.71279 c 0.063,0.25199 0.12599,0.50397 0.18899,0.75596 0.063,0 0.16081,-0.0564 0.18899,0 0.0563,0.11269 -0.0399,0.25845 0,0.37797 0.0282,0.0845 0.14914,0.10931 0.18899,0.18899 0.0281,0.0564 -0.0282,0.13264 0,0.18899 0.43246,0.86492 -0.0783,-0.80195 0.37796,0.56696 0.0398,0.11953 -0.0306,0.25575 0,0.37798 0.0483,0.19326 0.14068,0.3737 0.18899,0.56696 0.0154,0.0611 -0.0282,0.13265 0,0.18899 0.44622,0.89244 -0.0994,-1.15351 0.37798,0.75595 0.0339,0.13558 -0.0455,0.71042 0,0.75596 0.0445,0.0445 0.14444,-0.0445 0.189,0 0.0445,0.0445 -0.0199,0.12922 0,0.18898 0.0445,0.13364 0.14443,0.24435 0.18899,0.37798 0.0246,0.0735 -0.0293,0.53764 0,0.56697 0.0445,0.0445 0.14443,-0.0445 0.18896,0 0.0945,0.0945 -0.0945,0.47246 0,0.56696 0.25199,0.25198 0.18899,-0.31498 0.18899,0.18899 0,0.50397 -0.063,-0.063 0.189,0.18899 0.0891,0.0891 -0.0891,0.28888 0,0.37797 0.0891,0.0891 0.2889,-0.0891 0.37798,0 0.0445,0.0445 -0.0446,0.14445 0,0.18899 0.12597,0.12598 0.25199,-0.12598 0.37798,0 0.0445,0.0445 -0.0445,0.14444 0,0.18899 0.0445,0.0445 0.14444,0.0445 0.18897,0 0.0446,-0.0446 -0.0445,-0.14445 0,-0.18899 0.0446,-0.0445 0.14446,0.0445 0.18899,0 1.9e-4,-1.8e-4 -2.6e-4,-0.56611 0,-0.56696 0.0282,-0.0845 0.14915,-0.10931 0.18899,-0.18899 0.0564,-0.11269 -0.0563,-0.26529 0,-0.37798 0.0399,-0.0797 0.14915,-0.1093 0.189,-0.18899 0.0891,-0.17818 0.14067,-0.3737 0.18899,-0.56696 0.0153,-0.0611 -0.0446,-0.14444 0,-0.18899 0.0445,-0.0445 0.14443,0.0446 0.18899,0 0.0891,-0.0891 -0.0564,-0.26528 0,-0.37798 0.0398,-0.0797 0.14914,-0.1093 0.18899,-0.18898 0.0563,-0.11269 -0.0468,-0.261 0,-0.37798 0.10462,-0.26158 0.27334,-0.49437 0.37796,-0.75595 0.0236,-0.0585 -0.0445,-0.14445 0,-0.18899 0.0445,-0.0445 0.14446,0.0445 0.18899,0 0.0891,-0.0891 -0.0563,-0.26529 0,-0.37798 0.0399,-0.0797 0.14915,-0.1093 0.18899,-0.18898 0.0282,-0.0564 -0.0282,-0.13265 0,-0.18899 0.8913,-1.7826 0.0354,0.0414 0.56698,-0.75595 0.358,0.0215 0.12599,-0.44098 0.18896,-0.56697 0.0399,-0.0797 0.126,-0.12599 0.18899,-0.18899 0.6268,-0.62679 -0.0891,0.17818 0.189,-0.37797 0.0398,-0.0797 0.14914,-0.10931 0.18899,-0.18899 0.0282,-0.0564 -0.0446,-0.14444 0,-0.18899 0.0446,-0.0445 0.18899,-0.063 0.18899,0 0,0.063 -0.12599,0 -0.18899,0 -0.126,0 -0.25199,0 -0.37799,0 -0.31496,0 -0.62994,0 -0.94493,0 -0.31498,0 -0.62994,0 -0.94493,0 -0.063,0 -0.126,0 -0.18899,0 -0.063,0 -0.13264,0.0282 -0.18899,0 -0.0797,-0.0398 -0.1093,-0.14915 -0.189,-0.18899 -0.11737,-0.0587 -1.01282,0.0606 -1.13392,0 -0.0797,-0.0398 -0.10446,-0.16081 -0.18899,-0.18899 -0.0471,-0.0157 -0.92546,0.0195 -0.94494,0 -0.0445,-0.0445 0.0445,-0.14444 0,-0.18898 -0.0445,-0.0445 -0.12599,0 -0.18899,0 -0.64259,0 -0.58007,0.003 -1.32291,0.18898 z"
         style="fill:none;stroke:#000000;stroke-width:0.26458332px;stroke-linecap:butt;stroke-linejoin:miter;stroke-opacity:1" />
      <rect
         y="244.6503"
         x="638.59082"
         height="28.348215"
         width="47.813984"
         id="rect886"
         style="opacity:1;vector-effect:none;fill:#e4d8ff;fill-opacity:0.94472363;stroke:#0c0c0c;stroke-width:0.56499994;stroke-linecap:butt;stroke-linejoin:round;stroke-miterlimit:4;stroke-dasharray:none;stroke-dashoffset:0;stroke-opacity:1" />
      <text
         id="text890"
         y="261.47025"
         x="653.14282"
         style="font-style:normal;font-variant:normal;font-weight:normal;font-stretch:normal;font-size:4.93888855px;line-height:1.25;font-family:'Highway Gothic';-inkscape-font-specification:'Highway Gothic';letter-spacing:0px;word-spacing:0px;fill:#000000;fill-opacity:1;stroke:none;stroke-width:0.26458332"
         xml:space="preserve"><tspan
           style="stroke-width:0.26458332"
           y="261.47025"
           x="653.14282"
           id="tspan888"
           sodipodi:role="line">Fish Model</tspan><tspan
           id="tspan892"
           style="stroke-width:0.26458332"
           y="267.64386"
           x="653.14282"
           sodipodi:role="line" /></text>
      <path
         inkscape:connector-curvature="0"
         id="path894"
         d="m 669.39582,244.46131 c -1.90346,0.41479 -0.30723,-0.6852 -0.56697,-0.94494 -0.0445,-0.0445 -0.14444,0.0445 -0.18897,0 -0.0891,-0.0891 0.0891,-0.28889 0,-0.37798 -0.0445,-0.0445 -0.14446,0.0446 -0.18899,0 -0.0445,-0.0445 0.0445,-0.14444 0,-0.18899 -0.0445,-0.0445 -0.14446,0.0446 -0.18899,0 -0.006,-0.006 0,-0.52113 0,-0.56696 0,-0.94494 0,-1.88988 0,-2.83482 0,-1.7009 0,-3.40179 0,-5.10268 0,-0.0694 -0.008,-0.74835 0,-0.75596 0.0445,-0.0445 0.14444,0.0446 0.18899,0 0.0445,-0.0445 0,-0.12599 0,-0.18898 0,-0.13145 -0.0342,-0.8766 0,-0.94494 0.0399,-0.0797 0.14915,-0.10931 0.18899,-0.18899 0.0653,-0.13054 -0.0663,-0.8786 0,-0.94494 0.0445,-0.0446 0.14444,0.0445 0.18897,0 0.006,-0.006 0,-0.52113 0,-0.56697 0,-0.31498 0,-0.62996 0,-0.94494 0,-0.063 -0.0445,-0.14444 0,-0.18898 0.0446,-0.0445 0.14446,0.0445 0.18899,0 0.0446,-0.0445 0,-0.126 0,-0.18899 0,-0.063 0,-0.126 0,-0.18899 0,-0.37798 0,-0.75595 0,-1.13393 0,-0.063 -0.0445,-0.14444 0,-0.18899 0.0446,-0.0445 0.14446,0.0445 0.18899,0 0.0446,-0.0445 0,-0.12599 0,-0.18899 0,-0.37797 0,-0.75595 0,-1.13392 0,-0.063 0,-0.126 0,-0.18899 0,-0.063 -0.0445,-0.14444 0,-0.18899 0.0446,-0.0446 0.14444,0.0445 0.18899,0 0.0446,-0.0446 0,-0.12599 0,-0.18899 0,-0.063 0,-0.12599 0,-0.18899"
         style="fill:none;stroke:#000000;stroke-width:0.26458332px;stroke-linecap:butt;stroke-linejoin:miter;stroke-opacity:1" />
      <path
         inkscape:connector-curvature="0"
         id="path896"
         d="m 669.3958,225.94047 c -0.56695,0.37797 -1.1339,0.75595 -1.70088,1.13393 0,0.063 0.0446,0.14445 0,0.18899 -0.0445,0.0445 -0.14443,-0.0445 -0.18899,0 -0.0445,0.0445 0.0282,0.13264 0,0.18899 -0.0503,0.10066 -0.32763,0.27732 -0.37795,0.37797 -0.0282,0.0563 0.0282,0.13265 0,0.18899 -0.0399,0.0797 -0.14915,0.10931 -0.189,0.18899 -0.0282,0.0563 0.0445,0.14444 0,0.18899 -0.0445,0.0445 -0.14443,-0.0446 -0.18899,0 -0.0446,0.0445 0.0446,0.14444 0,0.18899 -0.0446,0.0445 -0.14443,-0.0445 -0.18899,0 -0.0891,0.0891 0.0891,0.28888 0,0.37797 -0.0445,0.0445 -0.14444,-0.0445 -0.18899,0 -0.0445,0.0445 0.0282,0.13264 0,0.18899 -0.0399,0.0797 -0.14915,0.1093 -0.18899,0.18899 -0.0282,0.0563 0.0445,0.14444 0,0.18899 -0.0445,0.0445 -0.14444,-0.0445 -0.18897,0 -0.0891,0.0891 0.0891,0.28888 0,0.37797 -0.0446,0.0445 -0.14446,-0.0445 -0.18899,0 -0.0446,0.0445 0,0.126 0,0.18899 0,0.063 0,0.12599 0,0.18899"
         style="fill:none;stroke:#000000;stroke-width:0.26458332px;stroke-linecap:butt;stroke-linejoin:miter;stroke-opacity:1" />
      <path
         inkscape:connector-curvature="0"
         id="path898"
         d="m 673.17558,230.85416 c -0.18899,-0.25198 -0.37798,-0.50397 -0.56695,-0.75595 -0.063,0 -0.14446,0.0446 -0.18899,0 -0.0445,-0.0445 0.0445,-0.14444 0,-0.18899 -0.0445,-0.0445 -0.14446,0.0445 -0.18899,0 -0.0446,-0.0445 0.0445,-0.14444 0,-0.18898 -0.0446,-0.0445 -0.14444,0.0445 -0.18899,0 -0.0891,-0.0891 0.0891,-0.28889 0,-0.37798 -0.0446,-0.0446 -0.14444,0.0445 -0.18899,0 -0.0445,-0.0446 0.0445,-0.14444 0,-0.18899 -0.0445,-0.0445 -0.14444,0.0446 -0.189,0 -0.0445,-0.0445 0.0446,-0.14444 0,-0.18899 -0.0445,-0.0445 -0.14443,0.0445 -0.18899,0 -0.0445,-0.0445 0.0446,-0.14444 0,-0.18899 -0.0445,-0.0445 -0.14443,0.0445 -0.18896,0 -0.0446,-0.0445 0.0445,-0.14444 0,-0.18898 -0.0446,-0.0445 -0.14447,0.0445 -0.18899,0 -0.0446,-0.0445 0.0445,-0.14445 0,-0.18899 -0.0446,-0.0446 -0.14447,0.0445 -0.189,0 -0.0445,-0.0446 0.0445,-0.14445 0,-0.18899 -0.0445,-0.0445 -0.14443,0.0445 -0.18899,0 -0.0446,-0.0445 0.0446,-0.14444 0,-0.18899 -0.0446,-0.0445 -0.13263,0.0282 -0.18899,0 -0.0797,-0.0398 -0.1093,-0.14914 -0.18899,-0.18899 -0.0563,-0.0282 -0.14444,0.0445 -0.18899,0 -0.0445,-0.0445 0.0445,-0.14444 0,-0.18898 -0.0445,-0.0445 -0.14444,0.0445 -0.18897,0 -0.0446,-0.0445 0.0445,-0.14445 0,-0.18899 -0.0446,-0.0446 -0.14446,0.0445 -0.18899,0 -0.0446,-0.0446 0.0445,-0.14445 0,-0.18899 -0.50398,0 0.063,0.063 -0.18899,-0.18899 -0.0446,-0.0445 -0.17865,0.0621 -0.189,0 -0.0621,-0.37283 0,-0.75596 -2e-5,-1.13393"
         style="fill:none;stroke:#000000;stroke-width:0.26458332px;stroke-linecap:butt;stroke-linejoin:miter;stroke-opacity:1" />
      <path
         inkscape:connector-curvature="0"
         id="path900"
         d="m 665.80506,230.2872 c 0.50395,-0.063 1.00401,-0.18899 1.51191,-0.18899 0.063,0 -0.0446,0.14444 0,0.18899 0.0585,0.0585 0.8864,-0.0585 0.94493,0 0.0445,0.0445 -0.0446,0.14444 0,0.18899 0.0445,0.0445 0.12599,0 0.18899,0 0.37796,0 0.75594,0 1.13393,0 0.063,0 0.14443,-0.0446 0.18899,0 0.0445,0.0445 -0.0446,0.14444 0,0.18899 0.0445,0.0445 0.12599,0 0.18899,0 0.44096,0 0.88194,0 1.32292,0 0.063,0 0.12599,0 0.18896,0 0.063,0 0.14447,-0.0445 0.18899,0 0.0446,0.0445 -0.0445,0.14444 0,0.18898 0.0446,0.0445 0.126,0 0.189,0 0.44095,0 0.88198,1e-5 1.32291,0"
         style="fill:none;stroke:#000000;stroke-width:0.26458332px;stroke-linecap:butt;stroke-linejoin:miter;stroke-opacity:1" />
      <path
         inkscape:connector-curvature="0"
         id="path902"
         d="m 676.76635,197.97024 c -0.063,-0.25199 -0.13803,-0.50126 -0.18897,-0.75596 -0.0246,-0.12354 0,-0.25198 0,-0.37797 0,-0.31498 0,-0.62996 0,-0.94494 0,-0.063 0,-0.12599 0,-0.18899 0,-0.063 0.0445,-0.14445 0,-0.18899 -0.0445,-0.0445 -0.14446,0.0445 -0.18899,0 -0.0445,-0.0445 0,-0.12599 0,-0.18899 0,-0.063 0,-0.12599 0,-0.18899 0,-0.69295 0,-1.38591 0,-2.07887 0,-1.70089 0,-3.40178 0,-5.10267 0,-0.56697 0,-1.13393 0,-1.7009 0,-0.063 0,-0.12599 0,-0.18898 0,-0.063 0.0445,-0.14445 0,-0.18899 -0.0445,-0.0445 -0.14446,0.0445 -0.18899,0 -0.0455,-0.0455 0.0455,-0.71048 0,-0.75596 -0.0446,-0.0445 -0.14444,0.0445 -0.18899,0 -0.0386,-0.0386 0.0375,-0.49203 0,-0.56696 -0.0399,-0.0797 -0.14915,-0.1093 -0.18899,-0.18899 -0.0512,-0.10252 0.0517,-0.70424 0,-0.75595 -0.0445,-0.0445 -0.14444,0.0445 -0.189,0 -0.0945,-0.0945 0.0945,-0.47247 0,-0.56696 -0.0445,-0.0445 -0.14443,0.0445 -0.18899,0 -0.0445,-0.0445 0,-0.126 0,-0.18899 0,-0.31498 0,-0.62996 0,-0.94494 0,-0.50397 0.063,0.063 -0.18896,-0.18899 -0.008,-0.009 0,-0.85583 0,-0.94494 0,-0.063 0,-0.12599 0,-0.18899 0,-0.063 -0.063,-0.18899 0,-0.18899 0.063,0 0.063,0.18899 0,0.18899 -0.0891,0 -0.126,-0.12599 -0.18899,-0.18899 -1.58297,-0.21323 0.082,0.86298 -0.18899,1.13393 -0.0445,0.0446 -0.14444,-0.0445 -0.18899,0 -0.0445,0.0446 0.0282,0.13265 0,0.18899 -0.0398,0.0797 -0.14915,0.10931 -0.18899,0.18899 -0.0563,0.11269 0.0891,0.28889 0,0.37798 -0.0445,0.0445 -0.14444,-0.0446 -0.18899,0 -0.0891,0.0891 0.0891,0.28888 0,0.37797 -0.0445,0.0445 -0.14444,-0.0445 -0.18898,0 -0.0891,0.0891 0.0563,0.26529 0,0.37798 -0.0399,0.0797 -0.14915,0.1093 -0.18899,0.18899 -0.0282,0.0563 0.0445,0.14444 0,0.18898 -0.0446,0.0446 -0.14444,-0.0445 -0.18899,0 -0.0445,0.0446 0,0.126 0,0.18899 0,0.063 0.0445,0.14445 0,0.18899 -0.0445,0.0445 -0.14444,-0.0445 -0.18899,0 -0.0891,0.0891 0.0891,0.28889 0,0.37798 -0.0445,0.0445 -0.14444,-0.0446 -0.18899,0 -0.0891,0.0891 0.0563,0.26528 0,0.37797 -0.0398,0.0797 -0.14914,0.10931 -0.18898,0.18899 -0.0564,0.11269 0.0891,0.28889 0,0.37798 -0.50397,0 0.063,-0.063 -0.18899,0.18899 -0.0446,0.0445 -0.14445,-0.0446 -0.18899,0 -0.0891,0.0891 0.0891,0.28888 0,0.37797 -0.25198,0.25199 -0.18899,-0.31498 -0.18899,0.18899"
         style="fill:none;stroke:#000000;stroke-width:0.26458332px;stroke-linecap:butt;stroke-linejoin:miter;stroke-opacity:1" />
      <path
         inkscape:connector-curvature="0"
         id="path904"
         d="m 675.06548,180.39434 c 0.44095,0.44097 0.88193,0.88195 1.32291,1.32292 0.063,0 0.14444,-0.0446 0.18899,0 0.0445,0.0445 -0.0445,0.14444 0,0.18899 0.0445,0.0445 0.14444,-0.0445 0.18897,0 0.0446,0.0445 -0.0281,0.13264 0,0.18899 0.0399,0.0797 0.12599,0.12599 0.18899,0.18898 0.063,0.063 0.1093,0.14915 0.18899,0.18899 0.0564,0.0282 0.14444,-0.0445 0.18899,0 0.0446,0.0446 -0.0282,0.13264 0,0.18899 0.0797,0.15937 0.2983,0.21861 0.37799,0.37798 0.0282,0.0563 -0.0446,0.14444 0,0.18898 0.0445,0.0445 0.14443,-0.0445 0.18899,0 0.0445,0.0445 -0.0446,0.14445 0,0.18899 0.0445,0.0446 0.14444,-0.0445 0.18897,0 0.0445,0.0446 -0.0282,0.13265 0,0.18899 0.0503,0.10066 0.32766,0.27732 0.37798,0.37798 0.0282,0.0563 -0.0282,0.13264 0,0.18898 0.0399,0.0797 0.14915,0.10931 0.18899,0.18899 0.0564,0.11269 -0.0891,0.28889 0,0.37798 0.0446,0.0445 0.14444,-0.0446 0.18899,0 0.0945,0.0945 -0.0945,0.47247 0,0.56696 0.0445,0.0445 0.14444,-0.0445 0.189,0 0.0386,0.0386 -0.0375,0.49204 0,0.56697 0.0398,0.0797 0.14914,0.1093 0.18899,0.18899 0.0281,0.0563 0,0.12599 0,0.18898 0.063,0.063 0.14914,0.10931 0.18896,0.18899 0.0282,0.0564 -0.0445,0.14445 0,0.18899 0.50398,0 -0.063,-0.063 0.18899,0.18899 0.0446,0.0445 0.189,-0.063 0.189,0 0,0.063 -0.126,0 -0.189,0 -0.12599,0 -0.25196,0 -0.37795,0 -0.0891,0 -0.93639,0.009 -0.94496,0 -0.0445,-0.0446 0.0445,-0.14444 0,-0.18899 -0.0386,-0.0386 -0.49202,0.0375 -0.56695,0 -0.0797,-0.0398 -0.1093,-0.14915 -0.18899,-0.18899 -0.10253,-0.0513 -0.70424,0.0517 -0.75597,0 -0.0445,-0.0445 0.0446,-0.14444 0,-0.18899 -0.0445,-0.0445 -0.12597,0 -0.18897,0 -0.0891,0 -0.93638,0.009 -0.94496,0 -0.0445,-0.0445 0.0446,-0.14444 0,-0.18898 -0.0445,-0.0445 -0.12599,0 -0.18899,0 -0.31496,0 -0.62994,0 -0.94493,0 -0.063,0 -0.14444,0.0445 -0.18899,0 -0.0445,-0.0445 0.0445,-0.14445 0,-0.18899 -0.0945,-0.0945 -0.47247,0.0945 -0.56695,0 -0.0446,-0.0445 0.0445,-0.14445 0,-0.18899 -0.0891,-0.0891 -0.2889,0.0891 -0.37799,0 -0.0445,-0.0446 0.0446,-0.14444 0,-0.18899 -0.31498,-0.31498 -0.18899,0.69294 -0.18899,-0.37797"
         style="fill:none;stroke:#000000;stroke-width:0.26458332px;stroke-linecap:butt;stroke-linejoin:miter;stroke-opacity:1" />
      <text
         id="text910"
         y="176.23659"
         x="716.64282"
         style="font-style:normal;font-variant:normal;font-weight:normal;font-stretch:normal;font-size:4.93888855px;line-height:1.25;font-family:'Highway Gothic';-inkscape-font-specification:'Highway Gothic';letter-spacing:0px;word-spacing:0px;fill:#000000;fill-opacity:1;stroke:none;stroke-width:0.26458332"
         xml:space="preserve"><tspan
           style="stroke-width:0.26458332"
           y="176.23659"
           x="716.64282"
           id="tspan908"
           sodipodi:role="line">for each game</tspan><tspan
           id="tspan912"
           style="stroke-width:0.26458332"
           y="182.4102"
           x="716.64282"
           sodipodi:role="line" /></text>
      <text
         id="text916"
         y="235.95685"
         x="644.82739"
         style="font-style:normal;font-variant:normal;font-weight:normal;font-stretch:normal;font-size:4.93888855px;line-height:1.25;font-family:'Highway Gothic';-inkscape-font-specification:'Highway Gothic';letter-spacing:0px;word-spacing:0px;fill:#000000;fill-opacity:1;stroke:none;stroke-width:0.26458332"
         xml:space="preserve"><tspan
           style="stroke-width:0.26458332"
           y="235.95685"
           x="644.82739"
           id="tspan914"
           sodipodi:role="line">moves</tspan></text>
      <text
         id="text920"
         y="235.0119"
         x="672.41968"
         style="font-style:normal;font-variant:normal;font-weight:normal;font-stretch:normal;font-size:4.93888855px;line-height:1.25;font-family:'Highway Gothic';-inkscape-font-specification:'Highway Gothic';letter-spacing:0px;word-spacing:0px;fill:#000000;fill-opacity:1;stroke:none;stroke-width:0.26458332"
         xml:space="preserve"><tspan
           style="stroke-width:0.26458332"
           y="235.0119"
           x="672.41968"
           id="tspan918"
           sodipodi:role="line">game state</tspan></text>
      <path
         inkscape:connector-curvature="0"
         id="path922"
         d="m 686.59374,211.01041 c 0.78359,0.86476 1.07014,0.34608 1.88989,0.75596 0.0797,0.0398 0.1093,0.14914 0.18897,0.18898 0.11271,0.0563 0.2653,-0.0563 0.37798,0 0.0797,0.0399 0.1093,0.14915 0.18899,0.18899 0.15119,0.0756 0.41577,-0.0756 0.56698,0 0.0797,0.0398 0.1093,0.14915 0.18897,0.18899 0.11271,0.0563 0.25445,-0.0247 0.37798,0 0.25469,0.0509 0.49974,0.14629 0.75597,0.18899 0.12427,0.0207 0.25574,-0.0306 0.37795,0 0.13666,0.0342 0.24435,0.14444 0.37799,0.18899 0.15211,0.0507 0.63518,-0.0604 0.75594,0 0.0797,0.0398 0.10448,0.16081 0.18899,0.18898 0.25805,0.086 0.8759,-0.086 1.13393,0 0.0845,0.0282 0.10448,0.16082 0.18899,0.18899 0.0567,0.0189 0.44413,-0.009 0.56697,0 0.75634,0.0582 1.51122,0.13494 2.26785,0.18899 0.21503,0.0154 0.74602,-0.0497 0.94494,0 0.13665,0.0342 0.24132,0.15482 0.37798,0.18899 0.12224,0.0306 0.25199,0 0.37798,0 0.81894,0 1.63791,0 2.45684,0 0.19654,0 0.98526,-0.0372 1.13393,0 0.13666,0.0342 0.24434,0.14444 0.37798,0.18899 0.0598,0.0199 0.126,0 0.18899,0 1.00794,0 2.01587,0 3.0238,0 0.43161,0 0.89124,0.0332 1.32291,0 0.69377,-0.0534 1.38547,-0.13121 2.07889,-0.18899 0.43301,-0.0361 0.8882,0 1.32291,0 0.18899,0 0.37912,0.0209 0.56695,0 0.5048,-0.0561 1.00714,-0.1329 1.51191,-0.18899 0.0842,-0.009 0.738,0.018 0.75597,0 0.0445,-0.0445 -0.0446,-0.14444 0,-0.18899 0.0323,-0.0323 0.65683,0.0248 0.75594,0 0.19328,-0.0483 0.37163,-0.14992 0.56697,-0.18899 0.12354,-0.0247 0.25199,0 0.37796,0 0.31499,0 0.62997,0 0.94496,0 0.17034,0 0.82598,0.0396 0.94493,0 0.13365,-0.0445 0.24133,-0.15482 0.37799,-0.18898 0.16086,-0.0402 0.83645,0.0542 0.94493,0 0.0797,-0.0399 0.1093,-0.14915 0.18899,-0.18899 0.0563,-0.0282 0.126,0 0.18899,0 0.063,0 0.126,0 0.189,0 0.37795,0 0.75594,0 1.13392,0 0.063,0 0.126,0 0.18899,0 0.063,0 0.14444,0.0445 0.18897,0 0.0445,-0.0446 -0.0563,-0.16082 0,-0.18899 0.0803,-0.0402 0.78658,0 0.94496,0"
         style="fill:none;stroke:#000000;stroke-width:0.26458332px;stroke-linecap:butt;stroke-linejoin:miter;stroke-opacity:1" />
      <path
         inkscape:connector-curvature="0"
         id="path924"
         d="m 721.36756,212.33333 c -0.50398,-0.69296 -0.97666,-1.40979 -1.51191,-2.07887 -0.0393,-0.0492 0,0.12599 0,0.18899 0,0.25198 0,0.50397 0,0.75595 0,0.44098 0,0.88195 0,1.32292 0,0.69296 0,1.38591 0,2.07887 0,0.063 0,0.12599 0,0.18899 0,0.063 -0.0446,0.14444 0,0.18898 0.0445,0.0445 0.14444,-0.0445 0.18899,0 0.0445,0.0445 0,0.126 0,0.18899 0,0.063 0,0.12599 0,0.18899 0,0.69296 0,1.38591 0,2.07887"
         style="fill:none;stroke:#000000;stroke-width:0.26458332px;stroke-linecap:butt;stroke-linejoin:miter;stroke-opacity:1" />
      <path
         inkscape:connector-curvature="0"
         id="path926"
         d="m 717.77677,207.23065 c 0.25198,0.12599 0.50397,0.25199 0.75596,0.37798 0,0.063 -0.0445,0.14444 0,0.18899 0.12597,0.12597 0.25199,-0.12598 0.37799,0 0.0445,0.0445 -0.0446,0.14444 0,0.18898 0.0445,0.0445 0.13263,-0.0282 0.18896,0 0.0797,0.0399 0.126,0.126 0.18899,0.18899 0.189,0.18899 0.37799,0.37798 0.56698,0.56697 0.063,0.063 0.11771,0.13553 0.18899,0.18898 0.18169,0.13629 0.40635,0.21737 0.56695,0.37798 0.0446,0.0446 -0.0445,0.14444 0,0.18899 0.0446,0.0445 0.14446,-0.0446 0.18899,0 0.0446,0.0445 -0.0445,0.14444 0,0.18899 0.0446,0.0445 0.14444,-0.0445 0.18899,0 0.0446,0.0445 -0.0445,0.14444 0,0.18899 0.0446,0.0445 0.14444,-0.0445 0.189,0 0.0445,0.0445 -0.0446,0.14444 0,0.18898 0.0445,0.0445 0.14443,-0.0445 0.18899,0 0.0445,0.0445 0,0.126 0,0.18899 0.063,0.063 0.11771,0.13554 0.18899,0.18899 0.18169,0.13628 0.40635,0.21737 0.56695,0.37798 0.0445,0.0445 -0.0445,0.14444 0,0.18898 0.0445,0.0445 0.14444,-0.0445 0.18899,0 0.0446,0.0445 -0.0282,0.13265 0,0.18899 0.0399,0.0797 0.126,0.12599 0.18899,0.18899 0.25199,0.25199 0.53332,0.47768 0.75594,0.75595 0.0394,0.0492 -0.0349,0.13658 0,0.18899 0.14828,0.22238 0.37799,0.37798 0.56698,0.56696 0.31499,0.31499 0.62995,0.62996 0.94493,0.94495 0.063,0.063 0.126,0.12599 0.18899,0.18898 0.063,0.063 0.1093,0.14915 0.189,0.18899 0.0563,0.0282 0.14443,-0.0445 0.18899,0 0.0445,0.0446 -0.0446,0.14444 0,0.18899 0.0996,0.0996 0.27837,0.0894 0.37796,0.18899 0.0445,0.0445 -0.0282,0.13264 0,0.18899 0.0398,0.0797 0.12599,0.12599 0.18899,0.18898 0.063,0.063 0.12599,0.126 0.18899,0.18899 0.063,0.063 0.14914,0.10931 0.18899,0.18899 0.0282,0.0563 -0.0446,0.14444 0,0.18899 0.0446,0.0445 0.126,0 0.18899,0 0.063,0 0.25199,0 0.18899,0 -1.07092,0 -0.063,-0.12599 -0.37798,0.18899 -0.0891,0.0891 -0.2653,-0.0564 -0.37798,0 -0.0797,0.0398 -0.10446,0.16081 -0.18899,0.18898 -0.11952,0.0399 -0.25845,-0.0398 -0.37796,0 -0.16904,0.0563 -0.21863,0.2983 -0.37799,0.37798 -0.0749,0.0375 -0.52832,-0.0386 -0.56697,0 -0.0445,0.0445 0.0445,0.14444 0,0.18899 -0.0445,0.0445 -0.13264,-0.0282 -0.18897,0 -0.0797,0.0398 -0.10932,0.14914 -0.18899,0.18899 -0.11268,0.0563 -0.2889,-0.0891 -0.37798,0 -0.0446,0.0445 0.0446,0.14444 0,0.18898 -0.0446,0.0445 -0.12922,-0.0199 -0.18899,0 -0.13365,0.0445 -0.24435,0.14445 -0.37799,0.18899 -0.0597,0.0199 -0.13263,-0.0282 -0.18896,0 -0.0797,0.0398 -0.10933,0.14915 -0.189,0.18899 -0.0749,0.0375 -0.52834,-0.0386 -0.56697,0 -0.0445,0.0446 0.0445,0.14444 0,0.18899 -0.0445,0.0445 -0.126,0 -0.18899,0 -0.0891,0 -0.93636,-0.009 -0.94494,0 -0.0445,0.0445 0.0446,0.14444 0,0.18899 -0.0445,0.0445 -0.12599,0 -0.18899,0 -0.0851,0 -0.50945,0.0288 -0.56695,0 -0.0797,-0.0399 -0.12599,-0.126 -0.18899,-0.18899"
         style="fill:none;stroke:#000000;stroke-width:0.26458332px;stroke-linecap:butt;stroke-linejoin:miter;stroke-opacity:1" />
      <path
         inkscape:connector-curvature="0"
         id="path928"
         d="m 689.61756,218.75893 c -0.25199,0.31498 -0.50398,0.62996 -0.75597,0.94494 -0.063,0 -0.14444,-0.0445 -0.18899,0 -0.0445,0.0445 0.0445,0.14444 0,0.18898 -0.0445,0.0445 -0.12597,0 -0.18897,0 -0.12599,0.126 -0.27916,0.22973 -0.37798,0.37798 -0.0349,0.0524 0.0445,0.14444 0,0.18899 -0.0446,0.0445 -0.13658,-0.035 -0.18899,0 -0.14825,0.0988 -0.22971,0.27914 -0.37799,0.37797 -0.0524,0.0349 -0.14443,-0.0445 -0.18899,0 -0.0445,0.0445 0.0446,0.14445 0,0.18899 -0.0445,0.0445 -0.13263,-0.0282 -0.18896,0 -0.5152,0.25759 -0.80775,0.68736 -1.32292,0.94494 -0.0564,0.0282 -0.13658,-0.0349 -0.18899,0 -0.14827,0.0988 -0.22974,0.27914 -0.37799,0.37798 -0.0524,0.0349 -0.13263,-0.0282 -0.18899,0 -0.0797,0.0398 -0.1093,0.14915 -0.18899,0.18899 -0.17817,0.0891 -0.38878,0.0999 -0.56695,0.18899 -0.0797,0.0398 -0.1093,0.14914 -0.18899,0.18898 -0.0564,0.0282 -0.12922,-0.0199 -0.18899,0 -0.26726,0.0891 -0.50398,0.25199 -0.75594,0.37798 -0.126,0.063 -0.24435,0.14444 -0.37799,0.18899 -0.0598,0.0199 -0.14443,-0.0446 -0.18899,0 -0.0446,0.0445 -0.0446,0.14444 0,0.18899 0.0446,0.0445 0.126,0 0.18899,0 0.31499,0 0.62995,0 0.94494,0 0.063,0 0.14443,0.0445 0.18899,0 0.25199,-0.25199 -0.31499,-0.18899 0.18899,-0.18899 0.37798,0 0.75594,0 1.13392,0 0.189,0 0.39794,-0.0845 0.56698,0 0.0563,0.0282 -0.0446,0.14444 0,0.18899 0.0445,0.0445 0.12599,0 0.18897,0 0.063,0 0.12599,0 0.18899,0 0.13396,0 1.08508,-0.0244 1.13392,0 0.0797,0.0398 0.10933,0.14914 0.18899,0.18898 0.15121,0.0756 0.4158,-0.0756 0.56698,0 0.0797,0.0399 0.12599,0.126 0.18899,0.18899 0.31499,0.063 0.6281,0.13618 0.94493,0.18899 0.18408,0.0307 1.04675,-0.0436 1.13393,0 0.0797,0.0398 0.1093,0.14915 0.18899,0.18899 0.0575,0.0288 0.48186,0 0.56698,0 0.4432,0 -0.0891,-0.0446 0.37795,0.18899 0.10166,0.0508 0.60503,-0.0302 0.75597,0 0.73628,0.14726 0.59314,0.18898 1.13393,0.18898 0.42695,0 -0.0845,-0.0282 0.56695,0.18899 0.0598,0.0199 0.18899,-0.063 0.18899,0 0,0.063 -0.14444,0.0445 -0.18899,0 -0.0445,-0.0445 0.0445,-0.14444 0,-0.18899 -0.50396,0 0.063,0.063 -0.18897,-0.18898 -0.0446,-0.0445 -0.13266,0.0282 -0.18899,0 -0.0797,-0.0399 -0.126,-0.12599 -0.18899,-0.18899 -0.063,-0.063 -0.14915,-0.10931 -0.189,-0.18899 -0.0282,-0.0563 0.0446,-0.14444 0,-0.18899 -0.91167,-0.91169 -0.16449,0.26248 -0.37798,-0.37797 -0.063,-0.126 -0.12599,-0.25199 -0.18899,-0.37798 -0.063,0 -0.14444,0.0445 -0.18897,0 -0.0445,-0.0445 0.0282,-0.13264 0,-0.18899 -0.0398,-0.0797 -0.14914,-0.1093 -0.18899,-0.18899 -0.0282,-0.0563 0.0282,-0.13264 0,-0.18898 -0.43246,-0.86493 0.0783,0.80195 -0.37798,-0.56697 -0.0199,-0.0598 0.0349,-0.13657 0,-0.18899 -0.0988,-0.14825 -0.27914,-0.22972 -0.37799,-0.37797 -0.0699,-0.10483 0.0399,-0.25845 0,-0.37798 -0.4563,-1.36892 0.0545,0.29796 -0.37795,-0.56696 -0.0564,-0.11269 0.0891,-0.28889 0,-0.37798 -0.0446,-0.0445 -0.14447,0.0445 -0.18899,0 -0.0891,-0.0891 0.0891,-0.28889 0,-0.37798 -0.0446,-0.0445 -0.14447,0.0445 -0.189,0 -0.0891,-0.0891 0.0891,-0.28888 0,-0.37797 -0.25199,-0.25199 -0.18899,0.31498 -0.18899,-0.18899"
         style="fill:none;stroke:#000000;stroke-width:0.26458332px;stroke-linecap:butt;stroke-linejoin:miter;stroke-opacity:1" />
      <path
         inkscape:connector-curvature="0"
         id="path930"
         d="m 688.29464,224.05059 c 0.18899,-0.44097 0.32893,-0.90636 0.56695,-1.32291 0.0313,-0.0547 0.126,0 0.18899,0 0.31499,0 0.62998,0 0.94494,0 1.19694,0 2.39387,0 3.59079,0 0.31498,0 0.62994,0 0.94493,0 0.063,0 0.126,0 0.18899,0 0.063,0 0.13264,-0.0282 0.18899,0 0.46707,0.23353 -0.0652,0.18898 0.37796,0.18898 0.62998,0 1.25995,0 1.88989,0 0.0644,0 0.65368,-0.0341 0.75595,0 0.65148,0.21716 0.14001,0.18899 0.56697,0.18899 0.62997,0 1.25992,0 1.88989,0 0.13145,0 0.87659,-0.0342 0.94494,0 0.0797,0.0399 0.1093,0.14915 0.18899,0.18899 0.0563,0.0282 0.12599,0 0.18899,0 0.063,0 0.12599,0 0.18897,0 0.44098,0 0.88196,0 1.32291,0 0.063,0 0.13266,-0.0282 0.18899,0 0.0797,0.0398 0.1093,0.14915 0.189,0.18899 0.0497,0.0248 0.65712,0 0.75596,0 0.31496,0 0.62995,0 0.94494,0 0.12419,0 0.46032,-0.0355 0.56695,0 0.13364,0.0445 0.24434,0.14444 0.37798,0.18899 0.0598,0.0199 0.12599,0 0.18899,0 0.44098,0 0.88194,0 1.32292,0 0.50398,0 1.00793,0 1.51191,0 0.81893,0 1.6379,0 2.45684,0 0.37798,0 0.75594,0 1.13392,0 0.063,0 0.126,0 0.18899,0 0.063,0 0.13264,0.0282 0.189,0 0.0797,-0.0399 0.1093,-0.14915 0.18899,-0.18899 0.0558,-0.0279 1.12821,0 1.32291,0 0.063,0 0.126,0 0.189,0 0.063,0 0.14443,0.0445 0.18896,0 0.0446,-0.0446 -0.0445,-0.14445 0,-0.18899 0.0446,-0.0445 0.126,0 0.18899,0 0.44098,0 0.88197,0 1.32292,0 1.95289,0 3.90575,0 5.85864,0 0.0891,0 0.93636,-0.009 0.94494,0 0.0445,0.0445 -0.0445,0.14444 0,0.18899 0.008,0.008 0.68654,0 0.75596,0"
         style="fill:none;stroke:#000000;stroke-width:0.26458332px;stroke-linecap:butt;stroke-linejoin:miter;stroke-opacity:1" />
      <text
         id="text934"
         y="219.1369"
         x="731.7619"
         style="font-style:normal;font-variant:normal;font-weight:normal;font-stretch:normal;font-size:4.93888855px;line-height:1.25;font-family:'Highway Gothic';-inkscape-font-specification:'Highway Gothic';letter-spacing:0px;word-spacing:0px;fill:#000000;fill-opacity:1;stroke:none;stroke-width:0.26458332"
         xml:space="preserve"><tspan
           style="stroke-width:0.26458332"
           y="219.1369"
           x="731.7619"
           id="tspan932"
           sodipodi:role="line">to player servers</tspan></text>
      <text
         id="text938"
         y="228.01933"
         x="705.11456"
         style="font-style:normal;font-variant:normal;font-weight:normal;font-stretch:normal;font-size:4.93888855px;line-height:1.25;font-family:'Highway Gothic';-inkscape-font-specification:'Highway Gothic';letter-spacing:0px;word-spacing:0px;fill:#000000;fill-opacity:1;stroke:none;stroke-width:0.26458332"
         xml:space="preserve"><tspan
           style="stroke-width:0.26458332"
           y="228.01933"
           x="705.11456"
           id="tspan936"
           sodipodi:role="line">moves</tspan><tspan
           id="tspan940"
           style="stroke-width:0.26458332"
           y="234.19295"
           x="705.11456"
           sodipodi:role="line" /></text>
      <text
         id="text944"
         y="208.36459"
         x="698.68896"
         style="font-style:normal;font-variant:normal;font-weight:normal;font-stretch:normal;font-size:4.93888855px;line-height:1.25;font-family:'Highway Gothic';-inkscape-font-specification:'Highway Gothic';letter-spacing:0px;word-spacing:0px;fill:#000000;fill-opacity:1;stroke:none;stroke-width:0.26458332"
         xml:space="preserve"><tspan
           style="stroke-width:0.26458332"
           y="208.36459"
           x="698.68896"
           id="tspan942"
           sodipodi:role="line">game model</tspan></text>
      <text
         id="text948"
         y="189.27678"
         x="638.21277"
         style="font-style:normal;font-variant:normal;font-weight:normal;font-stretch:normal;font-size:4.93888855px;line-height:1.25;font-family:'Highway Gothic';-inkscape-font-specification:'Highway Gothic';letter-spacing:0px;word-spacing:0px;fill:#000000;fill-opacity:1;stroke:none;stroke-width:0.26458332"
         xml:space="preserve"><tspan
           id="tspan950"
           style="stroke-width:0.26458332"
           y="189.27678"
           x="638.21277"
           sodipodi:role="line">player info</tspan></text>
      <text
         id="text956"
         y="192.48958"
         x="679.41223"
         style="font-style:normal;font-variant:normal;font-weight:normal;font-stretch:normal;font-size:4.93888855px;line-height:1.25;font-family:'Highway Gothic';-inkscape-font-specification:'Highway Gothic';letter-spacing:0px;word-spacing:0px;fill:#000000;fill-opacity:1;stroke:none;stroke-width:0.26458332"
         xml:space="preserve"><tspan
           style="stroke-width:0.26458332"
           y="192.48958"
           x="679.41223"
           id="tspan954"
           sodipodi:role="line">winner</tspan></text>
    </g>
    <g
       id="g861"
       transform="translate(12.473214,8.1264881)">
      <rect
         y="126.91071"
         x="605.70685"
         height="44.412205"
         width="84.666664"
         id="rect817"
         style="opacity:1;vector-effect:none;fill:#e4d8ff;fill-opacity:0.94472363;stroke:#0c0c0c;stroke-width:0.56499994;stroke-linecap:butt;stroke-linejoin:round;stroke-miterlimit:4;stroke-dasharray:none;stroke-dashoffset:0;stroke-opacity:1" />
      <text
         id="text831"
         y="151.1012"
         x="625.92853"
         style="font-style:normal;font-variant:normal;font-weight:normal;font-stretch:normal;font-size:4.93888855px;line-height:1.25;font-family:'Highway Gothic';-inkscape-font-specification:'Highway Gothic';letter-spacing:0px;word-spacing:0px;fill:#000000;fill-opacity:1;stroke:none;stroke-width:0.26458332"
         xml:space="preserve"><tspan
           style="stroke-width:0.26458332"
           y="151.1012"
           x="625.92853"
           id="tspan829"
           sodipodi:role="line">Tournament Manager</tspan></text>
    </g>
    <path
       style="fill:none;stroke:#000000;stroke-width:0.26458332px;stroke-linecap:butt;stroke-linejoin:miter;stroke-opacity:1"
       d="m 608.16368,152.04613 c 0.063,0.25198 0.0925,0.51479 0.18899,0.75595 0.0331,0.0827 0.16081,0.10447 0.18899,0.18899 0,0.86033 -0.0891,0.0108 0.18899,0.56696 0.052,0.104 -0.0493,0.98618 0,1.13393 0.0282,0.0845 0.16081,0.10447 0.18899,0.18899 0.0399,0.11953 0,0.25198 0,0.37798 0,0.063 -0.0282,0.13264 0,0.18898 0.0399,0.0797 0.14915,0.10931 0.18899,0.18899 0.0421,0.0841 -0.0288,0.66951 0,0.75595 0.0282,0.0845 0.14915,0.10931 0.18897,0.18899 0.0288,0.0575 0,0.48185 0,0.56697 0,0.37797 0,0.75595 0,1.13393 0,0.063 0,0.12599 0,0.18899 0,0.063 -0.0281,0.13264 0,0.18898 0.0399,0.0797 0.14915,0.10931 0.18899,0.18899 0.0342,0.0683 0,0.81349 0,0.94494 0,0.063 -0.0445,0.14444 0,0.18899 0.0446,0.0445 0.14446,-0.0446 0.18899,0 0.0151,0.0152 0,0.79619 0,0.94494 0,0.063 -0.0445,0.14444 0,0.18899 0.0446,0.0445 0.14444,-0.0445 0.189,0 0.0613,0.0613 -0.06,0.82499 0,0.94494 0.0398,0.0797 0.14914,0.1093 0.18899,0.18899 0.06,0.11995 -0.0613,0.88367 0,0.94494 0.0445,0.0445 0.14443,-0.0445 0.18899,0 0.0891,0.0891 -0.0891,0.28888 0,0.37797 0.0445,0.0446 0.12599,0 0.18899,0 0.0988,0 0.70625,0.0249 0.75594,0 0.0797,-0.0398 0.1093,-0.14914 0.18899,-0.18899 0.11269,-0.0563 0.26528,0.0563 0.37799,0 0.0797,-0.0398 0.1093,-0.14914 0.18896,-0.18898 0.11272,-0.0563 0.25847,0.0398 0.37799,0 0.13364,-0.0445 0.24434,-0.14445 0.37798,-0.18899 0.0598,-0.0199 0.12922,0.0199 0.18899,0 0.13364,-0.0446 0.24435,-0.14444 0.37796,-0.18899 0.11954,-0.0398 0.25847,0.0398 0.37798,0 0.13364,-0.0445 0.24435,-0.14444 0.37799,-0.18899 0.0598,-0.0199 0.13263,0.0282 0.18899,0 0.0797,-0.0398 0.10626,-0.1559 0.18899,-0.18898 0.24114,-0.0965 0.50125,-0.13805 0.75594,-0.18899 0.0618,-0.0124 0.14444,0.0445 0.18899,0 0.0445,-0.0445 -0.0445,-0.14445 0,-0.18899 0.0445,-0.0445 0.12923,0.0199 0.189,0 0.13364,-0.0445 0.25199,-0.126 0.37795,-0.18899 0.126,-0.063 0.2784,-0.0894 0.37799,-0.18899 0.0445,-0.0445 -0.0445,-0.14444 0,-0.18899 0.0445,-0.0445 0.14443,0.0445 0.18899,0 0.0446,-0.0445 -0.0446,-0.14444 0,-0.18898 0.0446,-0.0445 0.14443,0.0445 0.18899,0 0.0445,-0.0445 -0.0446,-0.14445 0,-0.18899 0.0445,-0.0445 0.14444,0.0445 0.18899,0 0.0891,-0.0891 -0.0891,-0.28889 0,-0.37798 0.0445,-0.0445 0.14444,0.0446 0.18899,0 0.0445,-0.0445 -0.0445,-0.14444 0,-0.18899 0.0445,-0.0445 0.14444,0.0445 0.18897,0 0.0446,-0.0445 -0.0445,-0.14444 0,-0.18899 0.0446,-0.0445 0.14446,0.0445 0.18899,0 0.0446,-0.0445 0,-0.12599 0,-0.18898 0,-0.48158 -0.22042,-0.2519 -0.37796,-0.56697 -0.0282,-0.0563 0.0445,-0.14444 0,-0.18899 -0.0445,-0.0445 -0.12599,0 -0.18899,0 -0.063,-0.12599 -0.0894,-0.27837 -0.18899,-0.37797 -0.0446,-0.0446 -0.14444,0.0445 -0.18899,0 -0.0446,-0.0446 0.0282,-0.13264 0,-0.18899 -0.0399,-0.0797 -0.14915,-0.1093 -0.18899,-0.18899 -0.0282,-0.0563 0.0445,-0.14444 0,-0.18898 -0.0445,-0.0446 -0.14444,0.0445 -0.18899,0 -0.0445,-0.0446 0.0445,-0.14445 0,-0.18899 -0.0445,-0.0445 -0.14444,0.0445 -0.189,0 -0.0445,-0.0445 0.0446,-0.14445 0,-0.18899 -0.0445,-0.0445 -0.13655,0.0349 -0.18896,0 -0.005,-0.003 -0.71538,-0.6748 -0.75597,-0.75595 -0.0282,-0.0563 0.0446,-0.14445 0,-0.18899 -0.0445,-0.0445 -0.13264,0.0282 -0.18899,0 -0.78653,-0.39326 0.20203,0.013 -0.18899,-0.37798 -0.0445,-0.0445 -0.13264,0.0282 -0.18897,0 -0.0797,-0.0398 -0.12599,-0.12599 -0.18899,-0.18899 -0.25199,-0.25198 -0.54213,-0.47086 -0.75597,-0.75595 -0.28911,-0.3855 0.45344,0.007 -0.18899,-0.37798 -0.24156,-0.14494 -0.53057,-0.20894 -0.75594,-0.37797 -0.10078,-0.0756 0.0891,-0.28889 0,-0.37798 -0.0891,-0.0891 -0.2889,0.0891 -0.37798,0 -0.39103,-0.39102 0.59753,0.0153 -0.189,-0.37797 -0.0563,-0.0282 -0.14443,0.0445 -0.18896,0 -0.39103,-0.39103 0.59753,0.0153 -0.18899,-0.37798 -0.0564,-0.0282 -0.13658,0.0349 -0.189,0 -0.14824,-0.0988 -0.22973,-0.27914 -0.37798,-0.37798 -0.0524,-0.0349 -0.14444,0.0445 -0.18899,0 -0.0445,-0.0445 0.0445,-0.14444 0,-0.18898 -0.0445,-0.0445 -0.14444,0.0445 -0.18899,0 -0.0445,-0.0445 0.0445,-0.14445 0,-0.18899 -0.0445,-0.0445 -0.13655,0.0349 -0.18897,0 -0.14827,-0.0988 -0.23545,-0.27107 -0.37798,-0.37798 -0.11269,-0.0845 -0.26078,-0.11085 -0.37799,-0.18899 -0.14824,-0.0988 -0.21859,-0.29829 -0.37798,-0.37797 -0.11269,-0.0564 -0.28887,0.0891 -0.37796,0 -0.0445,-0.0445 0.0611,-0.17371 0,-0.18899 -0.24447,-0.0611 -0.50398,0 -0.75596,0 -0.37796,-0.18899 -0.74549,-0.4005 -1.13393,-0.56697 -0.24821,-0.10637 -0.37798,0.25298 -0.37798,-0.18898"
       id="path870"
       inkscape:connector-curvature="0" />
    <g
       id="g1039">
      <path
         inkscape:connector-curvature="0"
         id="path868"
         d="m 563.56249,159.22768 c 0.25199,-0.063 0.52364,-0.0728 0.75594,-0.18899 0.0564,-0.0282 -0.0445,-0.14444 0,-0.18899 0.0891,-0.0891 0.2889,0.0891 0.37799,0 0.0445,-0.0445 -0.0445,-0.14444 0,-0.18899 0.0891,-0.0891 0.2889,0.0891 0.37798,0 0.0445,-0.0445 -0.0445,-0.14444 0,-0.18898 0.0945,-0.0945 0.47247,0.0945 0.56695,0 0.0446,-0.0446 -0.0445,-0.14445 0,-0.18899 0.0446,-0.0445 0.12925,0.0199 0.18899,0 0.13364,-0.0445 0.24435,-0.14445 0.37799,-0.18899 0.10419,-0.0347 0.71554,0.0404 0.75594,0 0.0445,-0.0445 -0.0445,-0.14444 0,-0.18899 1.8e-4,-1.8e-4 0.56613,2.6e-4 0.56697,0 0.0845,-0.0282 0.1093,-0.14915 0.18899,-0.18899 0.0563,-0.0282 0.126,0 0.189,0 0.18899,0 0.38766,0.0598 0.56695,0 0.0598,-0.0199 -0.0445,-0.14444 0,-0.18899 0.0505,-0.0505 0.82438,0.0603 0.94496,0 0.0797,-0.0398 0.10445,-0.16081 0.18896,-0.18898 0.11954,-0.0399 0.25199,0 0.37798,0 0.37799,0 0.75597,0 1.13393,0 0.18899,0 0.38769,0.0598 0.56697,0 0.0845,-0.0282 0.10256,-0.16739 0.189,-0.18899 0.18333,-0.0458 0.37795,0 0.56695,0 0.44098,0 0.88196,0 1.32291,0 1.13393,0 2.26788,0 3.4018,0 0.81894,0 1.63788,0 2.45684,0 0.25199,0 0.50396,0 0.75595,0 0.063,0 0.12599,0 0.18899,0 0.063,0 0.13263,-0.0282 0.18899,0 0.0797,0.0398 0.1093,0.14914 0.18899,0.18899 0.0563,0.0282 0.126,0 0.18899,0 0.18566,0 1.00894,-0.0417 1.13393,0 0.13364,0.0445 0.24434,0.14444 0.37798,0.18898 0.0597,0.0199 0.12597,0 0.18897,0 0.50398,0 1.00795,0 1.51191,0 0.063,0 0.12599,0 0.18899,0 0.063,0 0.14443,-0.0445 0.18899,0 0.0446,0.0445 -0.0446,0.14445 0,0.18899 0.0446,0.0446 0.12599,0 0.18899,0 0.50395,0 1.00793,0 1.51191,0 0.56695,0 1.13392,0 1.70087,0 0.19902,0 0.78833,-0.0391 0.94496,0 0.19325,0.0483 0.37161,0.14992 0.56695,0.18899 0.18532,0.0371 0.37799,0 0.56698,0 0.44098,0 0.88193,0 1.32291,0 0.0851,0 0.50946,-0.0288 0.56695,0 0.0797,0.0398 0.10933,0.14915 0.189,0.18899 0.0563,0.0282 0.12599,0 0.18899,0 0.063,0 0.12599,0 0.18899,0 0.31499,0 0.62997,0 0.94493,0 0.94496,0 1.88989,0 2.83483,0 0.063,0 0.12599,0 0.18899,0 0.063,0 0.14444,-0.0445 0.18899,0 0.0445,0.0445 -0.0445,0.14444 0,0.18899 0.0445,0.0445 0.126,0 0.18899,0 0.37796,0 0.75594,0 1.13393,0 1.07093,0 2.14185,0 3.21278,0 0.31499,0 0.62997,0 0.94496,0 0.063,0 0.12599,0 0.18899,0 0.063,0 0.13264,0.0282 0.18897,0 0.0797,-0.0399 0.10932,-0.14915 0.18899,-0.18899 0.0683,-0.0342 0.81349,0 0.94496,0 0.62994,0 1.25992,0 1.88986,0 1.32292,0 2.64584,0 3.96875,0 0.0694,0 0.74835,-0.008 0.75597,0 0.0445,0.0445 -0.0446,0.14444 0,0.18899 0.0445,0.0445 0.126,0 0.18897,0 0.12599,0 0.25199,0 0.37798,0 0.50398,0 1.00793,0 1.51191,0 0.12419,0 0.46035,-0.0356 0.56697,0 0.13362,0.0445 0.24435,0.14444 0.37796,0.18899 0.0598,0.0199 0.126,0 0.18899,0 0.50398,0 1.00793,0 1.51191,0 0.86032,0 0.0109,-0.0891 0.56698,0.18898 0.0645,0.0323 1.10971,0 1.32291,0 0.063,0 0.126,0 0.18897,0 0.063,0 0.13266,-0.0282 0.18899,0 0.0797,0.0399 0.10449,0.16082 0.18899,0.18899 0.0773,0.0258 1.2886,0 1.32292,0 0.063,0 0.18899,-0.063 0.18899,0 0,0.063 -0.12599,0 -0.18899,0 -0.12599,0 -0.25199,0 -0.37798,0"
         style="fill:none;stroke:#000000;stroke-width:0.26458332px;stroke-linecap:butt;stroke-linejoin:miter;stroke-opacity:1" />
      <text
         id="text874"
         y="153.55803"
         x="573.20093"
         style="font-style:normal;font-variant:normal;font-weight:normal;font-stretch:normal;font-size:4.93888855px;line-height:1.25;font-family:'Highway Gothic';-inkscape-font-specification:'Highway Gothic';letter-spacing:0px;word-spacing:0px;fill:#000000;fill-opacity:1;stroke:none;stroke-width:0.26458332"
         xml:space="preserve"><tspan
           style="stroke-width:0.26458332"
           y="153.55803"
           x="573.20093"
           id="tspan872"
           sodipodi:role="line">player info</tspan></text>
      <text
         id="text878"
         y="162.62946"
         x="573.95685"
         style="font-style:normal;font-variant:normal;font-weight:normal;font-stretch:normal;font-size:4.93888855px;line-height:1.25;font-family:'Highway Gothic';-inkscape-font-specification:'Highway Gothic';letter-spacing:0px;word-spacing:0px;fill:#000000;fill-opacity:1;stroke:none;stroke-width:0.26458332"
         xml:space="preserve"><tspan
           style="stroke-width:0.26458332"
           y="162.62946"
           x="573.95685"
           id="tspan876"
           sodipodi:role="line">start</tspan></text>
    </g>
    <g
       id="g1032">
      <g
         transform="translate(-7.3705357,6.0476191)"
         id="g856">
        <rect
           style="opacity:1;vector-effect:none;fill:#e4d8ff;fill-opacity:0.94472363;stroke:#0c0c0c;stroke-width:0.56499994;stroke-linecap:butt;stroke-linejoin:round;stroke-miterlimit:4;stroke-dasharray:none;stroke-dashoffset:0;stroke-opacity:1"
           id="rect815"
           width="82.209824"
           height="44.223213"
           x="488.9122"
           y="128.80058" />
        <text
           xml:space="preserve"
           style="font-style:normal;font-variant:normal;font-weight:normal;font-stretch:normal;font-size:4.93888855px;line-height:1.25;font-family:'Highway Gothic';-inkscape-font-specification:'Highway Gothic';letter-spacing:0px;word-spacing:0px;fill:#000000;fill-opacity:1;stroke:none;stroke-width:0.26458332"
           x="514.99255"
           y="152.80208"
           id="text823"><tspan
             sodipodi:role="line"
             x="514.99255"
             y="152.80208"
             style="stroke-width:0.26458332"
             id="tspan825">Sign-Up Server</tspan></text>
      </g>
      <path
         inkscape:connector-curvature="0"
         id="path1013"
         d="m 522.17411,216.86905 c -0.12599,-0.25199 -0.27334,-0.49438 -0.37798,-0.75595 -0.0468,-0.11698 0,-0.25199 0,-0.37798 0,-0.37798 0,-0.75595 0,-1.13393 0,-1.13393 0,-2.26786 0,-3.40178 0,-0.0988 0.0249,-0.70626 0,-0.75596 -0.0399,-0.0797 -0.16738,-0.10256 -0.189,-0.18898 -0.0611,-0.24446 0,-0.50397 0,-0.75596 0,-0.44097 0,-0.88194 0,-1.32291 0,-0.0747 -0.0403,-0.86423 0,-0.94494 0.0399,-0.0797 0.14915,-0.10931 0.189,-0.18899 0.0342,-0.0684 0,-0.81349 0,-0.94494 0,-0.75596 0,-1.51191 0,-2.26786 0,-0.42697 -0.0282,0.0845 0.18899,-0.56696 0.0398,-0.11953 0,-0.25199 0,-0.37798 0,-0.25198 0,-0.50397 0,-0.75595 0,-0.88195 0,-1.76389 0,-2.64584 0,-1.5119 0,-3.02381 0,-4.53571 0,-0.44097 0,-0.88195 0,-1.32292 0,-0.0851 -0.0288,-0.50945 0,-0.56696 0.0398,-0.0797 0.16081,-0.10447 0.18899,-0.18899 0.0598,-0.17929 0,-0.37798 0,-0.56696 0,-0.50397 0,-1.00794 0,-1.51191 0,-0.0458 -0.006,-0.56088 0,-0.56696 0.0445,-0.0445 0.14444,0.0445 0.18899,0 0.0445,-0.0445 0,-0.126 0,-0.18899 0,-0.12599 0,-0.25198 0,-0.37798 0,-0.56696 0,-1.13393 0,-1.70089 0,-0.0988 -0.0249,-0.70626 0,-0.75595 0.27808,-0.55616 0.18897,0.29336 0.18897,-0.56697 0,-1.13393 0,-2.26785 0,-3.40178 0,-0.0458 -0.006,-0.56089 0,-0.56697 0.0445,-0.0445 0.14446,0.0445 0.18899,0 0.008,-0.009 0,-0.85583 0,-0.94494 0,-0.75595 0,-1.5119 0,-2.26785 0,-0.126 0,-0.25199 0,-0.37798 0,-0.063 -0.063,-0.18899 0,-0.18899 0.063,0 0,0.12599 0,0.18899 0,0.063 0.0446,0.14444 0,0.18899 -0.0445,0.0445 -0.14444,-0.0446 -0.18899,0 -0.0445,0.0445 0.0445,0.14444 0,0.18899 -0.0445,0.0445 -0.14444,-0.0445 -0.18897,0 -0.0446,0.0445 0.0281,0.13264 0,0.18898 -0.0398,0.0797 -0.14914,0.10931 -0.18899,0.18899 -0.0282,0.0564 0.0445,0.14445 0,0.18899 -0.0446,0.0445 -0.14446,-0.0445 -0.18899,0 -0.0446,0.0445 0.0282,0.13264 0,0.18899 -0.0797,0.15937 -0.29829,0.2186 -0.37799,0.37797 -0.27807,0.55616 0.43781,-0.24881 -0.18899,0.37798 -0.14761,0.14762 -0.45823,0.40389 -0.56695,0.56696 -0.0781,0.11721 -0.10448,0.26529 -0.18899,0.37798 -0.19748,0.2633 -0.51752,0.51753 -0.75597,0.75595 -0.063,0.063 -0.13956,0.11487 -0.18896,0.18899 -0.0782,0.11721 -0.0894,0.27837 -0.18899,0.37798 -0.0446,0.0445 -0.14447,-0.0446 -0.18899,0 -0.0996,0.0996 -0.0894,0.27837 -0.189,0.37797 -0.0446,0.0445 -0.14443,-0.0445 -0.18899,0 -0.0445,0.0445 0.0282,0.13265 0,0.18899 -0.0398,0.0797 -0.13957,0.11486 -0.18899,0.18899 -0.0781,0.11721 -0.0894,0.27837 -0.18899,0.37798 -0.0445,0.0445 -0.14444,-0.0445 -0.18897,0 -0.0446,0.0445 0.0445,0.14444 0,0.18898 -0.39103,0.39103 0.0154,-0.59753 -0.37798,0.18899 -0.0282,0.0564 0.0445,0.14445 0,0.18899 -0.0996,0.0996 -0.27837,0.0894 -0.37799,0.18899 -0.0445,0.0445 0.0282,0.13264 0,0.18899 -0.1134,0.22678 -0.45357,0.34018 -0.56694,0.56696 -0.0282,0.0564 0.0445,0.14444 0,0.18899 -0.0446,0.0445 -0.14447,-0.0446 -0.189,0 -0.0445,0.0445 0.0445,0.14444 0,0.18899 -0.39102,0.39102 0.0154,-0.59754 -0.37798,0.18899 -0.0282,0.0563 0.0282,0.13264 0,0.18898 -0.0797,0.15937 -0.29829,0.21861 -0.37798,0.37798 -0.0282,0.0563 0.0445,0.14444 0,0.18899 -0.0445,0.0445 -0.14444,-0.0446 -0.189,0 -0.0445,0.0445 0.0446,0.14444 0,0.18899 -0.0445,0.0445 -0.14443,-0.0445 -0.18896,0 -0.0446,0.0445 -0.0446,0.14444 0,0.18898 0.0445,0.0445 0.14444,0.0445 0.18896,0 0.0446,-0.0445 -0.0445,-0.14444 0,-0.18898 0.0446,-0.0445 0.14447,0.0445 0.189,0 0.0445,-0.0445 -0.0445,-0.14445 0,-0.18899 0.0445,-0.0446 0.14446,0.0445 0.18899,0 0.0445,-0.0446 -0.0445,-0.14444 0,-0.18899 0.0445,-0.0445 0.13263,0.0282 0.18899,0 0.0797,-0.0398 0.11486,-0.13957 0.18899,-0.18899 0.11721,-0.0781 0.27837,-0.0894 0.37799,-0.18899 0.0445,-0.0445 -0.0446,-0.14444 0,-0.18898 0.0996,-0.0996 0.27836,-0.0894 0.37795,-0.18899 0.0446,-0.0445 0,-0.126 0,-0.18899 0.063,-0.063 0.11488,-0.13957 0.18899,-0.18899 0.11722,-0.0781 0.27837,-0.0894 0.37799,-0.18899 0.0445,-0.0445 -0.0282,-0.13264 0,-0.18899 0.093,-0.18597 0.66296,-0.56998 0.75594,-0.75595 0.0282,-0.0563 -0.0445,-0.14444 0,-0.18899 0.0446,-0.0445 0.13266,0.0282 0.18899,0 0.78653,-0.39326 -0.20203,0.013 0.18899,-0.37797 0.0446,-0.0446 0.14444,0.0445 0.189,0 0.0445,-0.0446 -0.0446,-0.14445 0,-0.18899 0.0445,-0.0445 0.14443,0.0445 0.18899,0 0.0445,-0.0445 -0.0446,-0.14444 0,-0.18899 0.0445,-0.0445 0.14443,0.0446 0.18899,0 0.0445,-0.0445 -0.0446,-0.14444 0,-0.18899 0.391,-0.39102 -0.0154,0.59754 0.37796,-0.18898 0.0282,-0.0563 -0.0282,-0.13265 0,-0.18899 0.0398,-0.0797 0.14914,-0.1093 0.18899,-0.18899 0.0282,-0.0564 -0.0445,-0.14444 0,-0.18899 0.0445,-0.0445 0.14443,0.0446 0.18899,0 0.063,-0.12599 0.12599,-0.25198 0.18899,-0.37797 0.063,0 0.14444,0.0445 0.18899,0 0.0445,-0.0445 -0.0282,-0.13265 0,-0.18899 0.0797,-0.15937 0.29829,-0.21861 0.37796,-0.37798 0.0282,-0.0563 -0.0281,-0.13264 0,-0.18899 0.0505,-0.10093 0.46749,-0.46746 0.56698,-0.56696 0.063,-0.063 0.12599,-0.12599 0.18899,-0.18899 0.063,-0.063 0.14914,-0.1093 0.18899,-0.18899 0.0282,-0.0563 -0.0446,-0.14444 0,-0.18899 0.0445,-0.0445 0.14444,0.0445 0.18899,0 0.0445,-0.0445 -0.0446,-0.14444 0,-0.18898 0.0445,-0.0445 0.14444,0.0445 0.18897,0 0.0445,-0.0445 -0.0445,-0.14445 0,-0.18899 0.0445,-0.0446 0.14446,0.0445 0.18899,0 0.0446,-0.0446 -0.0445,-0.14445 0,-0.18899 0.0446,-0.0445 0.12599,0 0.18899,0 0.063,0 0.14444,-0.0445 0.18899,0 0.0446,0.0445 -0.0282,0.13264 0,0.18899 0.0797,0.15937 0.29829,0.2186 0.37799,0.37797 0.0563,0.1127 -0.0891,0.28889 0,0.37798 0.0445,0.0445 0.14443,-0.0445 0.18899,0 0.0445,0.0445 -0.0282,0.13264 0,0.18899 0.0398,0.0797 0.13957,0.11486 0.18896,0.18899 0.15629,0.23441 0.22173,0.52154 0.37799,0.75595 0.0494,0.0741 0.14914,0.1093 0.18899,0.18899 0.0564,0.11269 -0.0564,0.26528 0,0.37797 0.0797,0.15937 0.29829,0.21861 0.37798,0.37798 0.0282,0.0563 -0.0282,0.13264 0,0.18899 0.0399,0.0797 0.14915,0.1093 0.189,0.18899 0.0281,0.0563 0,0.12599 0,0.18898 0.063,0.063 0.14914,0.10931 0.18896,0.18899 0.0282,0.0564 -0.0198,0.12923 0,0.18899 0.0446,0.13363 0.14446,0.24434 0.18899,0.37798 0.0199,0.0598 -0.0445,0.14444 0,0.18898 0.0446,0.0445 0.14447,-0.0445 0.18899,0 0.0891,0.0891 -0.0563,0.26529 0,0.37798 0.0399,0.0797 0.14915,0.1093 0.189,0.18899 0.0563,0.11269 -0.0891,0.28888 0,0.37797 0.0445,0.0445 0.14443,-0.0445 0.18899,0 0.0891,0.0891 -0.0891,0.28889 0,0.37798 0.0445,0.0446 0.14443,-0.0445 0.18899,0 0.0891,0.0891 -0.0891,0.28889 0,0.37798 0.0445,0.0445 0.14444,-0.0445 0.18899,0 0.0445,0.0445 -0.0282,0.13264 0,0.18899 0.0398,0.0797 0.14915,0.1093 0.18897,0.18898 0.0563,0.11269 -0.0891,0.28889 0,0.37798 0.0445,0.0445 0.14446,-0.0445 0.18899,0 0.0446,0.0445 -0.0282,0.13264 0,0.18899 0.0399,0.0797 0.14915,0.1093 0.18899,0.18899 0.0282,0.0563 0,0.12599 0,0.18898 0,0.063 0.0446,0.14445 0,0.18899 -0.0445,0.0446 -0.14443,-0.0445 -0.18899,0 -0.0445,0.0446 0.0446,0.14445 0,0.18899 -0.0585,0.0585 -0.88641,-0.0585 -0.94493,0 -0.0446,0.0445 0.0563,0.16082 0,0.18899 -0.16905,0.0845 -0.37799,0 -0.56698,0 -0.44095,0 -0.88193,0 -1.32292,0 -0.81893,0 -1.63787,0 -2.45684,0 -0.13396,0 -1.08505,0.0244 -1.13392,0 -0.0797,-0.0398 -0.10446,-0.16082 -0.18899,-0.18899 -0.23633,-0.0788 -1.08659,0.0788 -1.32292,0 -0.0845,-0.0282 -0.1093,-0.14915 -0.18899,-0.18899 -0.11877,-0.0594 -0.63717,0.0594 -0.75594,0 -0.46707,-0.23353 0.0652,-0.18899 -0.37799,-0.18899"
         style="fill:none;stroke:#000000;stroke-width:0.26458332px;stroke-linecap:butt;stroke-linejoin:miter;stroke-opacity:1" />
      <text
         id="text1017"
         y="224.61755"
         x="514.61456"
         style="font-style:normal;font-variant:normal;font-weight:normal;font-stretch:normal;font-size:4.93888855px;line-height:1.25;font-family:'Highway Gothic';-inkscape-font-specification:'Highway Gothic';letter-spacing:0px;word-spacing:0px;fill:#000000;fill-opacity:1;stroke:none;stroke-width:0.26458332"
         xml:space="preserve"><tspan
           style="stroke-width:0.26458332"
           y="224.61755"
           x="514.61456"
           id="tspan1015"
           sodipodi:role="line">clients</tspan></text>
      <text
         id="text1021"
         y="200.42708"
         x="525.95386"
         style="font-style:normal;font-variant:normal;font-weight:normal;font-stretch:normal;font-size:4.93888855px;line-height:1.25;font-family:'Highway Gothic';-inkscape-font-specification:'Highway Gothic';letter-spacing:0px;word-spacing:0px;fill:#000000;fill-opacity:1;stroke:none;stroke-width:0.26458332"
         xml:space="preserve"><tspan
           style="stroke-width:0.26458332"
           y="200.42708"
           x="525.95386"
           id="tspan1019"
           sodipodi:role="line">sign up info</tspan></text>
    </g>
    <g
       id="g1065" />
    <g
       id="g1060">
      <g
         id="g1081">
        <path
           style="fill:none;stroke:#000000;stroke-width:0.26458332px;stroke-linecap:butt;stroke-linejoin:miter;stroke-opacity:1"
           d="m 659.56843,274.69941 c 0.126,0.50395 0.27612,1.00251 0.37799,1.51191 0.068,0.34017 0,0.78618 0,1.13392 0,0.75594 0,1.51191 0,2.26785 0,2.39385 0,4.78769 0,7.18156 0,0.88194 0,1.76387 0,2.64583 0,0.12597 0.0891,0.28888 0,0.37796 -0.0891,0.0891 -0.28888,-0.0891 -0.37799,0 -0.0891,0.0891 0,0.25199 0,0.37799 0,0.75594 0,1.5119 0,2.26784 0,0.126 0,0.25199 0,0.37799 0,0.12599 0.0891,0.2889 0,0.37798 -0.0891,0.0891 -0.28887,-0.0891 -0.37795,0 -0.0891,0.0891 0,0.25199 0,0.37796 0,0.12599 0,0.25199 0,0.37798 m 0,0 c -1.51191,0.126 -3.02381,0.25199 -4.53572,0.37799 0.12599,0 0.28889,-0.0891 0.37798,0 0.17818,0.17818 -0.17818,0.57777 0,0.75595 0.0891,0.0891 0.28888,-0.0891 0.37797,0 0.0891,0.0891 0,0.25198 0,0.37798 0,0.12599 0,0.25198 0,0.37797 0,0.12599 0,0.25199 0,0.37798 0,0.12599 -0.0891,0.28888 0,0.37797 0.0891,0.0891 0.28889,-0.0891 0.37798,0 0.17818,0.17818 -0.17818,0.57778 0,0.75596 0.0891,0.0891 0.28889,-0.0891 0.37798,0 0.0891,0.0891 -0.0399,0.25845 0,0.37797 1.17189,2.34379 0.0481,-0.18548 0.37797,1.13393 0.78653,3.14609 -0.0261,-0.45626 0.75596,1.88988 0.0797,0.23906 -0.1127,0.53057 0,0.75595 0.0797,0.15937 0.29829,0.21861 0.37797,0.37798 0.0749,0.14986 -0.0773,1.05666 0,1.13393 0.0891,0.0891 0.28889,-0.0891 0.37798,0 0.17818,0.17818 -0.17818,0.57777 0,0.75595 0.17818,0.17818 0.57777,-0.17818 0.75595,0 0.0891,0.0891 -0.0891,0.28889 0,0.37798 0.0891,0.0891 0.28889,0.0891 0.37798,0 0.78204,-0.78205 -1.19507,0.0306 0.37797,-0.75595 1.00794,0 -0.12599,0.12599 0.37798,-0.37798 0.0891,-0.0891 0.28889,0.0891 0.37798,0 0.0891,-0.0891 -0.0891,-0.28889 0,-0.37798 0.0891,-0.0891 0.28888,0.0891 0.37797,0 0.78205,-0.78204 -1.19507,0.0306 0.37798,-0.75595 0.11269,-0.0563 0.28888,0.0891 0.37797,0 0.0891,-0.0891 -0.0563,-0.26528 0,-0.37798 0.0797,-0.15936 0.2983,-0.2186 0.37798,-0.37797 0.0563,-0.11269 -0.0891,-0.28889 0,-0.37798 0.0891,-0.0891 0.28889,0.0891 0.37798,0 0.17818,-0.17818 -0.17818,-0.57777 0,-0.75595 0.0891,-0.0891 0.28888,0.0891 0.37797,0 0.0891,-0.0891 -0.0563,-0.26529 0,-0.37798 0.0797,-0.15937 0.29829,-0.2186 0.37798,-0.37797 0.0563,-0.11269 -0.0891,-0.28889 0,-0.37798 0.0891,-0.0891 0.28888,0.0891 0.37797,0 0.0891,-0.0891 -0.0891,-0.28889 0,-0.37798 0.0891,-0.0891 0.25199,0 0.37798,0 0,-0.12599 -0.0891,-0.28888 0,-0.37797 0.0891,-0.0891 0.28889,0.0891 0.37798,0 0.17818,-0.17818 -0.17818,-0.57777 0,-0.75595 0.0891,-0.0891 0.28888,0.0891 0.37797,0 0.0891,-0.0891 -0.0563,-0.26529 0,-0.37798 0.0797,-0.15937 0.2983,-0.21861 0.37798,-0.37798 0.0563,-0.11269 -0.0891,-0.28888 0,-0.37797 0.0891,-0.0891 0.28889,0.0891 0.37798,0 0.17818,-0.17818 -0.17818,-0.57778 0,-0.75595 0.0891,-0.0891 0.28888,0.0891 0.37797,0 0.17818,-0.17818 -0.17818,-0.57778 0,-0.75596 0.0891,-0.0891 0.28889,0.0891 0.37798,0 0.0891,-0.0891 -0.0891,-0.28888 0,-0.37797 0.0891,-0.0891 0.28888,0.0891 0.37797,0 0.0891,-0.0891 0.0891,-0.28889 0,-0.37798 -0.0891,-0.0891 -0.25198,0 -0.37797,0 -0.12599,0 -0.25199,0 -0.37798,0 -2.14186,0 -4.28373,0 -6.42559,-10e-6 z"
           id="path1045"
           inkscape:connector-curvature="0" />
        <text
           xml:space="preserve"
           style="font-style:normal;font-variant:normal;font-weight:normal;font-stretch:normal;font-size:4.93888855px;line-height:1.25;font-family:'Highway Gothic';-inkscape-font-specification:'Highway Gothic';letter-spacing:0px;word-spacing:0px;fill:#000000;fill-opacity:1;stroke:none;stroke-width:0.26458332"
           x="667.88397"
           y="288.30655"
           id="text1049"><tspan
             sodipodi:role="line"
             id="tspan1047"
             x="667.88397"
             y="288.30655"
             style="stroke-width:0.26458332">game state</tspan></text>
        <rect
           style="opacity:1;vector-effect:none;fill:#ffbba6;fill-opacity:0.99607843;stroke:#0c0c0c;stroke-width:0.56499994;stroke-linecap:butt;stroke-linejoin:round;stroke-miterlimit:4;stroke-dasharray:none;stroke-dashoffset:0;stroke-opacity:1"
           id="rect1051"
           width="40.065475"
           height="23.056549"
           x="640.66962"
           y="305.31546" />
        <text
           xml:space="preserve"
           style="font-style:normal;font-variant:normal;font-weight:normal;font-stretch:normal;font-size:4.93888855px;line-height:1.25;font-family:'Highway Gothic';-inkscape-font-specification:'Highway Gothic';letter-spacing:0px;word-spacing:0px;fill:#000000;fill-opacity:1;stroke:none;stroke-width:0.26458332"
           x="655.03271"
           y="317.78867"
           id="text1055"><tspan
             sodipodi:role="line"
             id="tspan1053"
             x="655.03271"
             y="317.78867"
             style="stroke-width:0.26458332"> View</tspan></text>
      </g>
    </g>
    <g
       id="g1092"
       transform="translate(-17.764881,14.741071)">
      <rect
         y="69.458336"
         x="579.81543"
         height="22.300594"
         width="55.940475"
         id="rect1083"
         style="opacity:1;vector-effect:none;fill:#a6cdff;fill-opacity:0.99607843;stroke:#0c0c0c;stroke-width:0.56499994;stroke-linecap:butt;stroke-linejoin:round;stroke-miterlimit:4;stroke-dasharray:none;stroke-dashoffset:0;stroke-opacity:1" />
      <text
         id="text1087"
         y="81.931549"
         x="594.55652"
         style="font-style:normal;font-variant:normal;font-weight:normal;font-stretch:normal;font-size:4.93888855px;line-height:1.25;font-family:'Highway Gothic';-inkscape-font-specification:'Highway Gothic';letter-spacing:0px;word-spacing:0px;fill:#000000;fill-opacity:1;stroke:none;stroke-width:0.26458332"
         xml:space="preserve"><tspan
           style="stroke-width:0.26458332"
           y="81.931549"
           x="594.55652"
           id="tspan1085"
           sodipodi:role="line">Player Object</tspan></text>
    </g>
  </g>
</svg>
